<mxfile host="app.diagrams.net" agent="Mozilla/5.0 (Windows NT 10.0; Win64; x64) AppleWebKit/537.36 (KHTML, like Gecko) Chrome/128.0.0.0 Safari/537.36 OPR/114.0.0.0" version="24.8.6">
  <diagram id="C5RBs43oDa-KdzZeNtuy" name="Page-1">
    <mxGraphModel dx="1008" dy="534" grid="1" gridSize="10" guides="1" tooltips="1" connect="1" arrows="1" fold="1" page="1" pageScale="1" pageWidth="827" pageHeight="1169" math="0" shadow="0">
      <root>
        <mxCell id="WIyWlLk6GJQsqaUBKTNV-0" />
        <mxCell id="WIyWlLk6GJQsqaUBKTNV-1" parent="WIyWlLk6GJQsqaUBKTNV-0" />
        <mxCell id="Y0AIhfCUeJfGwIfqAGjF-3" style="edgeStyle=orthogonalEdgeStyle;rounded=0;orthogonalLoop=1;jettySize=auto;html=1;entryX=0.5;entryY=0;entryDx=0;entryDy=0;" edge="1" parent="WIyWlLk6GJQsqaUBKTNV-1" source="Y0AIhfCUeJfGwIfqAGjF-0" target="Y0AIhfCUeJfGwIfqAGjF-2">
          <mxGeometry relative="1" as="geometry">
            <Array as="points">
              <mxPoint x="400" y="160" />
              <mxPoint x="230" y="160" />
            </Array>
          </mxGeometry>
        </mxCell>
        <mxCell id="Y0AIhfCUeJfGwIfqAGjF-5" style="edgeStyle=orthogonalEdgeStyle;rounded=0;orthogonalLoop=1;jettySize=auto;html=1;entryX=0.5;entryY=0;entryDx=0;entryDy=0;" edge="1" parent="WIyWlLk6GJQsqaUBKTNV-1" source="Y0AIhfCUeJfGwIfqAGjF-0" target="Y0AIhfCUeJfGwIfqAGjF-4">
          <mxGeometry relative="1" as="geometry" />
        </mxCell>
        <mxCell id="Y0AIhfCUeJfGwIfqAGjF-8" style="edgeStyle=orthogonalEdgeStyle;rounded=0;orthogonalLoop=1;jettySize=auto;html=1;entryX=0.5;entryY=0;entryDx=0;entryDy=0;exitX=0.795;exitY=0.994;exitDx=0;exitDy=0;exitPerimeter=0;" edge="1" parent="WIyWlLk6GJQsqaUBKTNV-1" source="Y0AIhfCUeJfGwIfqAGjF-0" target="Y0AIhfCUeJfGwIfqAGjF-6">
          <mxGeometry relative="1" as="geometry">
            <mxPoint x="510" y="130" as="sourcePoint" />
            <Array as="points">
              <mxPoint x="520" y="129" />
              <mxPoint x="520" y="160" />
              <mxPoint x="690" y="160" />
            </Array>
          </mxGeometry>
        </mxCell>
        <mxCell id="Y0AIhfCUeJfGwIfqAGjF-0" value="Altthebestnoob2019" style="rounded=0;whiteSpace=wrap;html=1;fontSize=12;glass=0;strokeWidth=1;shadow=0;fontStyle=1;strokeColor=#d6b656;align=center;verticalAlign=middle;fontFamily=Helvetica;fontColor=default;fillColor=#fff2cc;gradientColor=#FFFFFF;" vertex="1" parent="WIyWlLk6GJQsqaUBKTNV-1">
          <mxGeometry x="360" y="50" width="200" height="80" as="geometry" />
        </mxCell>
        <mxCell id="Y0AIhfCUeJfGwIfqAGjF-2" value="Altfool123" style="rounded=0;whiteSpace=wrap;html=1;shadow=0;glass=0;strokeColor=#d6b656;strokeWidth=1;align=center;verticalAlign=middle;fontFamily=Helvetica;fontSize=12;fontColor=default;fontStyle=1;fillColor=#fff2cc;gradientColor=#FFFFFF;" vertex="1" parent="WIyWlLk6GJQsqaUBKTNV-1">
          <mxGeometry x="140" y="200" width="180" height="80" as="geometry" />
        </mxCell>
        <mxCell id="Y0AIhfCUeJfGwIfqAGjF-4" value="Danibackup5" style="rounded=0;whiteSpace=wrap;html=1;shadow=0;glass=0;strokeColor=#d6b656;strokeWidth=1;align=center;verticalAlign=middle;fontFamily=Helvetica;fontSize=12;fontColor=default;fontStyle=1;fillColor=#fff2cc;gradientColor=#FFFFFF;" vertex="1" parent="WIyWlLk6GJQsqaUBKTNV-1">
          <mxGeometry x="370" y="200" width="180" height="80" as="geometry" />
        </mxCell>
        <mxCell id="Y0AIhfCUeJfGwIfqAGjF-6" value="Altsx12345" style="rounded=0;whiteSpace=wrap;html=1;shadow=0;glass=0;strokeColor=#d6b656;strokeWidth=1;align=center;verticalAlign=middle;fontFamily=Helvetica;fontSize=12;fontColor=default;fontStyle=1;fillColor=#fff2cc;gradientColor=#FFFFFF;" vertex="1" parent="WIyWlLk6GJQsqaUBKTNV-1">
          <mxGeometry x="600" y="200" width="180" height="80" as="geometry" />
        </mxCell>
      </root>
    </mxGraphModel>
  </diagram>
</mxfile>
